<svg xmlns="http://www.w3.org/2000/svg" viewBox="0 0 24 24" fill="currentColor" aria-hidden="true">
  <path d="M.045 18.02c.072-.116.187-.124.348-.022 3.979 2.3 9.035 3.484 14.017 3.484 3.276 0 6.959-.763 10.076-2.34.341-.166.552-.1.38.222-.52.983-2.835 2.855-5.037 3.855-1.403.64-4.16 1.53-7.58 1.53-4.236 0-8.098-1.24-11.15-3.352-.253-.175-.28-.29-.054-.377zm2.42-2.69c.1-.14.25-.1.44.02 1.78 1.04 4.49 2.16 7.76 2.16 2.52 0 5.23-.67 7.63-1.9.35-.18.55-.05.4.28-.55 1.17-2.3 2.4-4.3 3.15-1.4.53-3.5 1.05-6.1 1.05-2.9 0-5.6-.66-7.8-1.8-.23-.12-.25-.25-.03-.36zm19.2-13.4c0-1.05-.88-1.48-2.36-1.48h-2.2v9.4h1.4V7.5h.78c1.36 0 1.88.4 2.2 1.66l.82 3.16h1.56l-.96-3.48c-.32-1.12-.9-1.62-1.9-1.78v-.04c1.12-.28 1.66-.98 1.66-2.04zm-1.4.16c0 .82-.58 1.2-1.5 1.2h-1.66V3.5h1.66c.92 0 1.5.34 1.5 1.08zM10.8 10.8c0 1.74-1.28 2.6-3.14 2.6-1.86 0-3.14-.86-3.14-2.6V1.5h1.42v9.1c0 .96.5 1.42 1.72 1.42s1.72-.46 1.72-1.42V1.5h1.42v9.3zm4.4 2.5h-1.42V1.5h1.42v11.8z"/>
</svg>
