<svg xmlns="http://www.w3.org/2000/svg" viewBox="0 0 24 24" fill="currentColor" aria-hidden="true">
  <path d="M23.997 6.124c0-.738-.065-1.47-.24-2.19-.317-1.31-1.062-2.31-2.18-3.043C21.003.517 20.373.285 19.7.164c-.517-.093-1.038-.135-1.564-.15-.04-.003-.083-.01-.124-.013H5.986c-.152.01-.303.017-.455.034C4.787.1 4.055.223 3.37.526c-1.39.616-2.35 1.666-2.83 3.13-.153.47-.23.96-.29 1.45-.039.318-.058.638-.07.958-.01.15-.016.3-.016.45V17.48c.004.27.016.54.04.81.1 1.1.33 2.13.92 3.05.78 1.21 1.92 1.96 3.34 2.24.4.08.81.12 1.22.14.15.008.3.01.45.01h12.09c.17 0 .34-.01.51-.02 1.08-.05 2.1-.28 3.02-.85 1.12-.68 1.85-1.68 2.2-2.96.12-.46.18-.93.22-1.4.02-.22.03-.44.03-.66V6.124zM11.03 18.68c-1.77.14-3.35-.86-3.82-2.41-.32-1.05-.08-2.18.65-3.02.66-.76 1.6-1.2 2.62-1.28.18-.01.36 0 .54.02v-1.5c0-.55 0-1.1.01-1.65.01-.28.05-.56.14-.83.17-.5.52-.88 1-1.05.52-.18 1.06-.1 1.5.2.18.12.32.28.42.46.1.18.16.38.19.58.04.3.05.6.05.9v6.85c0 .18-.02.35-.06.52-.12.55-.48 1-1 1.2-.45.17-.93.2-1.4.14l-.24.02zm6.72-1.33c-.33.5-.86.8-1.45.86-.18.02-.36.02-.54.01-.55-.04-1.05-.27-1.4-.67-.28-.32-.44-.72-.48-1.15-.02-.2-.02-.4-.02-.6V8.42c0-.22.02-.44.06-.65.12-.62.54-1.13 1.1-1.4.42-.2.9-.26 1.36-.18.5.1.94.4 1.22.83.18.28.28.6.32.94.03.22.04.45.04.67v6.2c0 .3-.06.6-.21.87z"/>
</svg>
